<svg width="152" height="55" viewBox="0 0 152 55" fill="none" xmlns="http://www.w3.org/2000/svg">
    <path
        d="M130.751 12.6381C132.469 13.9372 133.691 15.1701 134.417 16.3371C135.166 17.482 135.54 18.726 135.54 20.069C135.54 21.6103 135.166 23.0855 134.417 24.4946C133.669 25.9037 132.557 26.9606 131.082 27.6651C130.223 28.0614 129.342 28.3256 128.439 28.4578C127.559 28.5899 126.568 28.6559 125.467 28.6559C125.357 28.6559 125.247 28.4027 125.137 27.8963C125.027 27.3679 124.972 26.6303 124.972 25.6835C124.972 24.1863 125.104 23.1515 125.368 22.5791C125.61 22.0066 125.863 21.7204 126.128 21.7204C127.493 21.7204 128.572 21.6103 129.364 21.3901C130.179 21.1699 130.586 20.8947 130.586 20.5644C130.586 20.1461 130.168 19.4856 129.331 18.5829C128.494 17.6801 127.041 16.5242 124.972 15.1151L126.128 9.17034L142.145 2.2348L143.136 7.51902L130.751 12.6381Z"
        fill="#A72F3B" />
    <path
        d="M125.46 28.6559C123.038 28.6559 121.133 28.0064 119.746 26.7074C118.359 25.3863 117.622 23.3387 117.534 20.5644L116.873 2.7302L122.488 2.2348C122.466 4.34849 122.432 7.14472 122.388 10.6235C122.366 14.0803 122.344 16.1829 122.322 16.9315C122.322 18.6269 122.609 19.8489 123.181 20.5975C123.776 21.3461 124.755 21.7204 126.12 21.7204L125.46 28.6559Z"
        fill="black" />
    <path
        d="M113.06 12.8027C113.501 15.8852 113.721 18.4172 113.721 20.3988C113.721 22.9528 113.181 24.9674 112.102 26.4426C111.046 27.9178 109.603 28.6554 107.776 28.6554C106.345 28.6554 105.145 28.4352 104.176 27.9948C103.207 27.5325 102.536 26.949 102.161 26.2444C101.765 26.993 101.149 27.5875 100.312 28.0279C99.4753 28.4462 98.5506 28.6554 97.5378 28.6554C96.3488 28.6554 95.358 28.4352 94.5654 27.9948C93.7727 27.5325 93.2553 26.905 93.0131 26.1123C92.4847 27.0151 91.7031 27.6646 90.6683 28.0609C89.6555 28.4572 88.2573 28.6554 86.4739 28.6554C86.3638 28.6554 86.2537 28.4022 86.1437 27.8958C86.0336 27.3673 85.9785 26.6298 85.9785 25.683C85.9785 24.1858 86.1106 23.151 86.3748 22.5785C86.617 22.0061 86.8702 21.7198 87.1344 21.7198C88.5876 21.7198 89.6665 21.5217 90.371 21.1254C91.0756 20.729 91.4279 20.0465 91.4279 19.0777V16.7659L95.7213 16.4356V18.7475C95.7213 20.729 96.4919 21.7198 98.0331 21.7198C98.7817 21.7198 99.3542 21.4886 99.7505 21.0263C100.147 20.5639 100.345 19.9144 100.345 19.0777V17.0961L104.638 16.7659V18.7475C104.638 19.7382 104.914 20.4868 105.464 20.9932C106.037 21.4776 106.862 21.7198 107.941 21.7198C108.492 21.7198 108.767 21.4997 108.767 21.0593C108.767 20.5309 108.679 19.6722 108.503 18.4832C108.326 17.2723 108.084 15.8742 107.776 14.2889L113.06 12.8027Z"
        fill="black" />
    <path
        d="M86.4719 28.6556C84.9747 28.6556 83.7086 28.4024 82.6738 27.896C81.661 27.3675 80.9895 26.652 80.6592 25.7492C80.1528 26.652 79.2831 27.3675 78.0501 27.896C76.8171 28.4024 75.2759 28.6556 73.4264 28.6556H72.7659C72.6558 28.6556 72.5457 28.4024 72.4356 27.896C72.3256 27.3675 72.2705 26.6299 72.2705 25.6832C72.2705 24.186 72.4026 23.1512 72.6668 22.5787C72.909 22.0062 73.1622 21.72 73.4264 21.72H74.087C76.0245 21.72 77.3566 21.4118 78.0832 20.7953C78.8318 20.1788 79.206 19.2761 79.206 18.0871V15.7753L83.4995 15.445V17.922C83.4995 19.2871 83.7857 20.2669 84.3582 20.8613C84.9526 21.4338 85.8774 21.72 87.1324 21.72L86.4719 28.6556ZM78.8758 8.34433H79.206H84.6554V12.8029H79.206H78.8758H73.4264V8.34433H78.8758Z"
        fill="black" />
    <path
        d="M71.3532 28.6567C70.6927 31.3648 69.1294 33.4014 66.6634 34.7665C65.1662 35.5812 63.3278 36.2417 61.148 36.7481C58.9683 37.2765 56.3482 37.6618 53.2878 37.904C53.0015 36.4729 52.6162 34.4363 52.1318 31.7942C57.372 31.4419 61.1701 30.9465 63.5259 30.308C65.9038 29.6695 67.2139 28.8988 67.4561 27.9961C65.8268 28.2163 64.1314 28.3264 62.37 28.3264C60.6526 28.3264 59.3426 27.864 58.4399 26.9393C57.5372 26.0145 57.0858 24.7155 57.0858 23.0422C57.0858 21.2587 57.394 19.5634 58.0105 17.9561C58.649 16.3268 59.5187 15.0057 60.6196 13.9929C61.7205 12.9801 62.9645 12.4737 64.3516 12.4737C66.2451 12.4737 67.8414 13.2774 69.1404 14.8847C70.4395 16.4699 71.2651 18.7487 71.6174 21.7211H73.4339L72.7733 28.6567H71.3532ZM61.2141 20.5652C61.2141 21.0055 61.3682 21.3358 61.6765 21.556C62.0067 21.7762 62.5682 21.8862 63.3608 21.8862L66.9277 21.8202C66.3332 19.4423 65.1993 18.2533 63.5259 18.2533C62.9095 18.2533 62.37 18.5065 61.9077 19.0129C61.4453 19.5194 61.2141 20.0368 61.2141 20.5652Z"
        fill="black" />
    <path
        d="M48.3268 11.9771C49.5598 11.9771 50.5505 12.3184 51.2991 13.0009C52.0477 13.6615 52.5982 14.6963 52.9505 16.1054C53.1266 16.788 53.2807 17.6356 53.4128 18.6484C53.5449 19.6392 53.611 20.4979 53.611 21.2245C53.611 22.5676 53.3578 23.8336 52.8514 25.0225C52.345 26.2115 51.6734 27.1692 50.8368 27.8958C50.0221 28.6224 49.1855 28.9857 48.3268 28.9857C46.8956 28.9857 45.4645 28.6554 44.0333 27.9949C42.6022 27.3344 41.6114 26.5968 41.061 25.7821C40.2683 26.839 39.4207 27.5876 38.5179 28.0279C37.6152 28.4463 36.6464 28.6554 35.6116 28.6554C35.5015 28.6554 35.3914 28.4022 35.2813 27.8958C35.1713 27.3674 35.1162 26.6298 35.1162 25.6831C35.1162 24.1859 35.2483 23.151 35.5125 22.5786C35.7547 22.0061 36.0079 21.7199 36.2721 21.7199C36.9547 21.7199 37.5051 21.6428 37.9235 21.4887C38.3638 21.3126 38.7601 21.0153 39.1124 20.597C39.4867 20.1566 39.916 19.4851 40.4004 18.5824C41.3692 16.821 42.2279 15.4779 42.9765 14.5532C43.7251 13.6064 44.5067 12.9459 45.3214 12.5716C46.158 12.1753 47.1598 11.9771 48.3268 11.9771ZM43.9343 20.1677C44.1764 20.586 44.837 21.0043 45.9158 21.4227C46.9947 21.841 47.9635 22.0502 48.8222 22.0502C49.1304 22.0502 49.2845 21.885 49.2845 21.5548C49.2845 21.1805 49.2295 20.7181 49.1194 20.1677C49.0313 19.5952 48.9323 19.1218 48.8222 18.7475C48.58 17.9769 48.1396 17.5916 47.5011 17.5916C46.9286 17.5916 46.4553 17.6577 46.081 17.7898C45.7067 17.9219 45.3544 18.1751 45.0241 18.5494C44.7159 18.9016 44.3526 19.4411 43.9343 20.1677Z"
        fill="black" />
    <path
        d="M34.2946 28.6553C34.2946 29.8002 34.0194 30.89 33.4689 31.9249C32.9405 32.9597 32.1699 33.9065 31.1571 34.7651C29.9901 35.7779 28.3058 36.6036 26.104 37.2421C23.9023 37.9026 21.6235 38.2329 19.2676 38.2329C15.7888 38.2329 13.1797 37.5173 11.4403 36.0862C9.72294 34.6771 8.86426 32.5304 8.86426 29.646C8.86426 27.0039 9.52479 23.5362 10.8458 19.2427L14.9741 20.3987C14.5558 21.9839 14.2586 23.272 14.0824 24.2627C13.9063 25.2315 13.8182 26.0902 13.8182 26.8388C13.8182 28.292 14.3356 29.3928 15.3705 30.1414C16.4273 30.9121 18.1116 31.2974 20.4235 31.2974C22.1188 31.2974 23.6601 31.1653 25.0472 30.9011C26.4343 30.6589 27.5242 30.3506 28.3168 29.9763C29.1094 29.602 29.5058 29.2718 29.5058 28.9855C29.5058 28.8094 29.2966 28.6553 28.8783 28.5232C28.4599 28.369 27.6893 28.2039 26.5664 28.0278C25.4435 27.8516 23.7812 27.6204 21.5794 27.3342L22.7353 21.5546C25.1573 21.6647 28.9553 21.7197 34.1294 21.7197H36.2762L35.6156 28.6553H34.2946Z"
        fill="black" />
    <path
        d="M131.585 37.3497C132.322 37.3497 132.888 37.7311 133.282 38.4938C133.684 39.2565 133.885 40.2665 133.885 41.5238C133.885 42.0686 133.772 42.5798 133.546 43.0576C133.32 43.527 133.001 43.8497 132.59 44.0257C132.28 44.1598 131.849 44.2562 131.295 44.3148C130.751 44.3735 130.155 44.4028 129.51 44.4028H128.592C128.559 44.4028 128.525 44.3526 128.492 44.252C128.458 44.1514 128.441 44.0131 128.441 43.8371C128.441 43.5521 128.475 43.3342 128.542 43.1833C128.601 43.0241 128.668 42.9444 128.743 42.9444H129.812C131.22 42.9444 132.159 42.8439 132.628 42.6427C132.796 42.5673 132.879 42.3787 132.879 42.0769C132.879 41.8506 132.875 41.6872 132.867 41.5866C132.263 41.7375 131.677 41.8129 131.107 41.8129C130.554 41.8129 130.134 41.683 129.85 41.4232C129.573 41.155 129.435 40.7946 129.435 40.3419C129.435 39.8391 129.527 39.3571 129.711 38.8961C129.896 38.4351 130.151 38.0621 130.478 37.7772C130.805 37.4922 131.174 37.3497 131.585 37.3497ZM130.428 39.8391C130.428 40.0486 130.503 40.2162 130.654 40.3419C130.813 40.4593 131.036 40.518 131.32 40.518C131.815 40.518 132.289 40.4761 132.741 40.3922C132.632 39.8055 132.46 39.3613 132.226 39.0596C131.991 38.7578 131.71 38.607 131.383 38.607C131.115 38.607 130.889 38.7285 130.704 38.9716C130.52 39.2146 130.428 39.5038 130.428 39.8391ZM130.717 36.0422V34.6215H132.251V36.0422H130.717Z"
        fill="black" />
    <path
        d="M128.592 44.4034C128.006 44.4034 127.587 44.3028 127.335 44.1017C127.31 44.7554 127.172 45.3128 126.92 45.7738C126.677 46.2432 126.267 46.6497 125.688 46.9933C125.118 47.3453 124.335 47.6387 123.337 47.8734L122.859 46.591C123.765 46.3563 124.46 46.1174 124.946 45.8744C125.441 45.6313 125.776 45.3882 125.952 45.1452C126.137 44.9021 126.229 44.6339 126.229 44.3405C126.229 43.8376 126.179 43.2677 126.078 42.6307C125.986 41.9853 125.86 41.3567 125.701 40.7448L126.92 40.3425C127.046 41.122 127.168 41.6877 127.285 42.0398C127.411 42.3834 127.578 42.6223 127.788 42.7564C127.997 42.8821 128.316 42.945 128.743 42.945L128.592 44.4034Z"
        fill="black" />
    <path
        d="M120.85 39.6501C121.353 39.6501 121.78 39.8345 122.132 40.2033C122.493 40.5721 122.761 41.0498 122.937 41.6365C123.121 42.2149 123.214 42.8267 123.214 43.4721C123.214 44.26 123.084 44.9054 122.824 45.4083C122.564 45.9112 122.137 46.3344 121.541 46.6781C120.561 47.248 118.977 47.6294 116.789 47.8222C116.705 47.4953 116.605 47.0343 116.487 46.4392C117.954 46.3051 119.102 46.1417 119.932 45.9489C120.762 45.7561 121.344 45.5214 121.68 45.2448C122.023 44.9766 122.195 44.6497 122.195 44.2642V44.1636C121.659 44.3312 121.039 44.415 120.334 44.415C119.781 44.415 119.362 44.2809 119.077 44.0127C118.792 43.7361 118.65 43.359 118.65 42.8812C118.65 42.3196 118.742 41.7916 118.926 41.2971C119.119 40.8026 119.383 40.4044 119.718 40.1027C120.054 39.801 120.431 39.6501 120.85 39.6501ZM119.656 42.3154C119.656 42.525 119.731 42.6926 119.882 42.8183C120.041 42.9441 120.272 43.0069 120.573 43.0069C121.068 43.0069 121.571 42.9608 122.082 42.8686C121.965 42.2819 121.784 41.8251 121.541 41.4982C121.307 41.1714 121.022 41.0079 120.686 41.0079C120.393 41.0079 120.146 41.142 119.945 41.4102C119.752 41.6701 119.656 41.9718 119.656 42.3154Z"
        fill="black" />
    <path
        d="M116.577 39.6883C116.644 40.0822 116.703 40.5474 116.753 41.0838C116.804 41.6119 116.829 42.0645 116.829 42.4417C116.829 43.0368 116.682 43.5145 116.389 43.8749C116.104 44.227 115.748 44.403 115.32 44.403C114.851 44.403 114.44 44.3192 114.088 44.1515C113.744 43.9839 113.501 43.7534 113.359 43.46C113.174 43.7618 112.935 43.9965 112.642 44.1641C112.349 44.3233 112.022 44.403 111.661 44.403C111.259 44.403 110.907 44.3233 110.605 44.1641C110.304 43.9965 110.102 43.7576 110.002 43.4475C109.801 43.766 109.495 44.0048 109.084 44.1641C108.673 44.3233 108.129 44.403 107.45 44.403C107.416 44.403 107.383 44.3527 107.349 44.2521C107.316 44.1515 107.299 44.0132 107.299 43.8372C107.299 43.5522 107.332 43.3343 107.399 43.1834C107.458 43.0242 107.525 42.9446 107.601 42.9446C108.305 42.9446 108.824 42.8398 109.16 42.6303C109.495 42.4123 109.662 42.0687 109.662 41.5993V40.8701L110.731 40.7821V41.7125C110.731 42.098 110.819 42.3998 110.995 42.6177C111.18 42.8356 111.448 42.9446 111.8 42.9446C112.118 42.9446 112.382 42.8314 112.592 42.6051C112.81 42.3788 112.919 42.1064 112.919 41.7879V40.9958L113.987 40.9078V41.7125C113.987 42.0896 114.109 42.3914 114.352 42.6177C114.603 42.8356 114.947 42.9446 115.383 42.9446C115.475 42.9446 115.551 42.9194 115.609 42.8691C115.668 42.8105 115.697 42.735 115.697 42.6428C115.697 42.4165 115.66 42.0477 115.584 41.5365C115.517 41.0168 115.437 40.5181 115.345 40.0403L116.577 39.6883ZM112.428 37.2618V36.0549H113.836V37.2618H112.428ZM113.07 37.8402H113.195H114.842V39.022H113.195H113.07H111.423V37.8402H113.07Z"
        fill="black" />
    <path
        d="M101.202 36.118L101.076 35.2756L104.961 33.5155L105.149 34.3076L101.202 36.118ZM107.45 44.4032C106.989 44.4032 106.57 44.3404 106.193 44.2146C105.824 44.0889 105.43 43.8668 105.011 43.5483C104.592 43.2298 104.081 42.7646 103.477 42.1528C103.427 42.5383 103.305 42.8862 103.113 43.1963C102.92 43.498 102.689 43.7285 102.421 43.8878C102.145 44.047 101.797 44.1727 101.378 44.2649C100.959 44.3571 100.531 44.4032 100.095 44.4032C100.062 44.4032 100.028 44.3571 99.9947 44.2649C99.9612 44.1644 99.9445 44.0177 99.9445 43.8249C99.9445 43.5483 99.978 43.3346 100.045 43.1837C100.104 43.0245 100.171 42.9448 100.246 42.9448C100.9 42.9448 101.432 42.8694 101.843 42.7185C102.254 42.5677 102.459 42.3707 102.459 42.1276C102.459 41.9348 102.404 41.7337 102.295 41.5241C102.187 41.3146 101.943 41.0254 101.566 40.6566C101.189 40.2795 100.619 39.7933 99.8564 39.1982L100.158 37.6015L106.583 34.6219L106.859 35.7911L100.975 38.4942C101.839 39.1396 102.719 39.8604 103.616 40.6566C104.32 41.2853 104.885 41.7588 105.313 42.0773C105.74 42.3958 106.126 42.6221 106.47 42.7562C106.813 42.882 107.19 42.9448 107.601 42.9448L107.45 44.4032Z"
        fill="black" />
    <path
        d="M100.085 44.4028C99.2551 44.4028 98.6307 44.1891 98.2116 43.7617C97.8009 43.3258 97.583 42.6553 97.5578 41.7501L97.3818 34.7221L98.6768 34.6215L98.6642 41.0586C98.6558 41.6788 98.7774 42.1482 99.0288 42.4667C99.2887 42.7852 99.6952 42.9444 100.248 42.9444L100.085 44.4028Z"
        fill="black" />
    <path
        d="M92.4676 38.1415C93.2722 38.812 93.8966 39.3778 94.3409 39.8388C94.7851 40.2998 95.1036 40.7147 95.2964 41.0835C95.4891 41.4523 95.5855 41.821 95.5855 42.1898C95.5855 42.6508 95.464 43.0531 95.2209 43.3968C94.9779 43.7404 94.651 44.0045 94.2403 44.1889C93.8631 44.3732 93.4063 44.4654 92.8699 44.4654C92.258 44.4654 91.8012 44.3188 91.4995 44.0254C91.1977 43.7237 91.0469 43.3297 91.0469 42.8436C91.0469 42.039 91.4827 41.0416 92.3544 39.8514L91.7384 39.3233L92.4676 38.1415ZM92.1407 42.215C92.1407 42.4245 92.2203 42.6005 92.3796 42.743C92.5388 42.8855 92.7777 42.9568 93.0962 42.9568C93.465 42.9568 93.796 42.9065 94.0894 42.8059C94.3911 42.7053 94.542 42.588 94.542 42.4539C94.542 42.2443 94.4372 42.0012 94.2277 41.7247C94.0265 41.4397 93.6368 41.029 93.0585 40.4926C92.7567 40.8781 92.5262 41.2218 92.367 41.5235C92.2161 41.8169 92.1407 42.0473 92.1407 42.215Z"
        fill="black" />
    <path d="M88.1666 44.9765L87.9277 35.2202L89.2227 35.1197L89.185 44.8884L88.1666 44.9765Z" fill="black" />
    <path
        d="M85.7632 40.048C85.8386 40.4503 85.9141 40.9197 85.9895 41.4561C86.0733 41.9925 86.1152 42.3907 86.1152 42.6505C86.1152 43.0277 86.0188 43.4007 85.8261 43.7694C85.6333 44.1299 85.3734 44.3897 85.0466 44.5489C84.5772 44.7836 83.8312 44.901 82.8087 44.901C82.7751 44.901 82.7416 44.8507 82.7081 44.7501C82.6746 44.6495 82.6578 44.5112 82.6578 44.3352C82.6578 44.0502 82.6913 43.8323 82.7584 43.6814C82.817 43.5222 82.8841 43.4426 82.9595 43.4426C84.309 43.4426 84.9837 43.2959 84.9837 43.0025C84.9837 42.7762 84.9418 42.399 84.858 41.871C84.7742 41.3346 84.6652 40.8443 84.5311 40.4L85.7632 40.048ZM83.6636 46.2965H83.7893H85.4363V47.4783H83.7893H83.6636H82.0166V46.2965H83.6636Z"
        fill="black" />
    <path
        d="M82.8009 44.9009C81.7197 44.9009 81.045 44.5489 80.7768 43.8448C80.5924 44.1885 80.2781 44.4525 79.8338 44.6369C79.3896 44.8129 78.8197 44.9009 78.124 44.9009H77.8726C77.839 44.9009 77.8055 44.8506 77.772 44.75C77.7384 44.6495 77.7217 44.5112 77.7217 44.3351C77.7217 44.0502 77.7552 43.8322 77.8223 43.6814C77.8809 43.5221 77.948 43.4425 78.0234 43.4425H78.2749C79.0208 43.4425 79.5614 43.3252 79.8967 43.0905C80.2404 42.8558 80.4122 42.4954 80.4122 42.0092V40.9909L81.4808 40.9029V41.9967C81.4808 42.4744 81.594 42.8348 81.8203 43.0779C82.055 43.321 82.4363 43.4425 82.9644 43.4425L82.8009 44.9009ZM79.5195 39.5199V38.0992H81.0534V39.5199H79.5195Z"
        fill="black" />
    <path
        d="M77.8654 44.9017C76.7842 44.9017 76.1094 44.5497 75.8412 43.8456C75.6568 44.1893 75.3425 44.4533 74.8983 44.6377C74.4541 44.8137 73.8841 44.9017 73.1885 44.9017H72.937C72.9035 44.9017 72.8699 44.8514 72.8364 44.7508C72.8029 44.6503 72.7861 44.512 72.7861 44.336C72.7861 44.051 72.8197 43.8331 72.8867 43.6822C72.9454 43.5229 73.0124 43.4433 73.0879 43.4433H73.3393C74.0853 43.4433 74.6259 43.326 74.9612 43.0913C75.3048 42.8566 75.4766 42.4962 75.4766 42.01V40.9917L76.5453 40.9037V41.9975C76.5453 42.4752 76.6584 42.8356 76.8847 43.0787C77.1194 43.3218 77.5008 43.4433 78.0288 43.4433L77.8654 44.9017ZM75.1623 38.3389H75.288H76.935V39.5207H75.288H75.1623H73.5153V38.3389H75.1623Z"
        fill="black" />
    <path
        d="M72.9375 44.9016C72.3173 44.9016 71.8814 44.7884 71.63 44.5621C71.5294 45.1237 71.3115 45.6308 70.9762 46.0834C70.641 46.536 70.18 46.9173 69.5933 47.2275C68.6964 47.6968 67.5146 48.0614 66.0478 48.3213L65.8089 47.5543L65.6455 47.0389C67.5481 46.6952 68.8431 46.2929 69.5304 45.8319C70.2261 45.3709 70.5739 44.8722 70.5739 44.3358C70.5739 44.0592 70.5236 43.6192 70.423 43.0157C70.3225 42.4038 70.1967 41.8129 70.0459 41.243L71.2654 40.8407C71.3911 41.6202 71.5126 42.1859 71.63 42.5379C71.7557 42.8816 71.9233 43.1205 72.1329 43.2546C72.3424 43.3803 72.6609 43.4432 73.0884 43.4432L72.9375 44.9016Z"
        fill="black" />
    <path
        d="M67.3827 40.0484C67.4582 40.4507 67.5336 40.9201 67.609 41.4565C67.6929 41.9929 67.7348 42.3911 67.7348 42.6509C67.7348 43.0281 67.6384 43.401 67.4456 43.7698C67.2528 44.1302 66.993 44.3901 66.6661 44.5493C66.1967 44.784 65.4508 44.9014 64.4282 44.9014C64.3947 44.9014 64.3612 44.8511 64.3276 44.7505C64.2941 44.6499 64.2773 44.5116 64.2773 44.3356C64.2773 44.0506 64.3109 43.8327 64.3779 43.6818C64.4366 43.5226 64.5036 43.4429 64.5791 43.4429C65.9285 43.4429 66.6032 43.2963 66.6032 43.0029C66.6032 42.7766 66.5613 42.3994 66.4775 41.8714C66.3937 41.335 66.2847 40.8446 66.1506 40.4004L67.3827 40.0484ZM65.7357 38.8917V37.471H67.2696V38.8917H65.7357Z"
        fill="black" />
    <path
        d="M64.4211 44.9017C63.3398 44.9017 62.6651 44.5497 62.3969 43.8456C62.2125 44.1893 61.8982 44.4533 61.454 44.6377C61.0097 44.8137 60.4398 44.9017 59.7441 44.9017H59.4927C59.4591 44.9017 59.4256 44.8514 59.3921 44.7508C59.3586 44.6503 59.3418 44.512 59.3418 44.336C59.3418 44.051 59.3753 43.8331 59.4424 43.6822C59.501 43.5229 59.5681 43.4433 59.6435 43.4433H59.895C60.6409 43.4433 61.1816 43.326 61.5168 43.0913C61.8605 42.8566 62.0323 42.4962 62.0323 42.01V40.9917L63.101 40.9037V41.9975C63.101 42.4752 63.2141 42.8356 63.4404 43.0787C63.6751 43.3218 64.0565 43.4433 64.5845 43.4433L64.4211 44.9017ZM61.718 38.3389H61.8437H63.4907V39.5207H61.8437H61.718H60.071V38.3389H61.718Z"
        fill="black" />
    <path
        d="M58.8594 44.9018C58.9348 45.0276 58.9726 45.17 58.9726 45.3293C58.9726 45.6646 58.8929 45.9914 58.7337 46.31C58.5828 46.6285 58.3439 46.9176 58.0171 47.1774C57.5058 47.5798 56.8059 47.9067 55.9175 48.1581C55.0374 48.4179 54.1657 48.5478 53.3024 48.5478C52.1206 48.5478 51.2363 48.3048 50.6496 47.8186C50.0629 47.3409 49.7695 46.6494 49.7695 45.7442C49.7695 44.8725 49.9875 43.6991 50.4233 42.2239L51.4165 42.5005C51.098 43.6739 50.9388 44.575 50.9388 45.2036C50.9388 45.7903 51.1609 46.2513 51.6051 46.5865C52.0493 46.9218 52.6989 47.0894 53.5538 47.0894C54.2747 47.0894 54.9661 47.0056 55.6283 46.838C56.2904 46.6787 56.8269 46.486 57.2376 46.2597C57.6483 46.0334 57.8536 45.8406 57.8536 45.6813C57.8536 45.5472 57.7656 45.4299 57.5896 45.3293C57.422 45.2371 57.1202 45.1407 56.6844 45.0401C56.2569 44.9396 55.6283 44.818 54.7985 44.6755L55.0877 43.3806C55.951 43.4225 57.0993 43.4434 58.5325 43.4434H59.6389L59.4755 44.9018H58.8594Z"
        fill="black" />
</svg>